<svg preserveAspectRatio="none" width="100%" height="100%" overflow="visible" style="display: block;" viewBox="0 0 21 21" fill="none" xmlns="http://www.w3.org/2000/svg">
<g id="Battery icon">
<g id="Vector">
<path d="M4.38725 6.1285C3.69106 6.1285 3.02338 6.40506 2.53109 6.89734C2.03881 7.38963 1.76225 8.05731 1.76225 8.7535V12.2535C1.76225 12.9497 2.03881 13.6174 2.53109 14.1097C3.02338 14.6019 3.69106 14.8785 4.38725 14.8785H14.8872C15.5834 14.8785 16.2511 14.6019 16.7434 14.1097C17.2357 13.6174 17.5122 12.9497 17.5122 12.2535V8.7535C17.5122 8.05731 17.2357 7.38963 16.7434 6.89734C16.2511 6.40506 15.5834 6.1285 14.8872 6.1285H4.38725ZM4.38725 7.8785H14.8872C15.1193 7.8785 15.3419 7.97069 15.506 8.13478C15.6701 8.29888 15.7622 8.52144 15.7622 8.7535V12.2535C15.7622 12.4856 15.6701 12.7081 15.506 12.8722C15.3419 13.0363 15.1193 13.1285 14.8872 13.1285H4.38725C4.15519 13.1285 3.93263 13.0363 3.76853 12.8722C3.60444 12.7081 3.51225 12.4856 3.51225 12.2535V8.7535C3.51225 8.52144 3.60444 8.29888 3.76853 8.13478C3.93263 7.97069 4.15519 7.8785 4.38725 7.8785ZM18.3872 7.8785V13.1285C18.6171 13.1285 18.8446 13.0832 19.0569 12.9953C19.2693 12.9073 19.4622 12.7784 19.6247 12.6159C19.7872 12.4534 19.9161 12.2605 20.004 12.0482C20.092 11.8359 20.1372 11.6083 20.1372 11.3785V9.6285C20.1372 9.39869 20.092 9.17112 20.004 8.9588C19.9161 8.74648 19.7872 8.55357 19.6247 8.39106C19.4622 8.22856 19.2693 8.09966 19.0569 8.01171C18.8446 7.92376 18.6171 7.8785 18.3872 7.8785Z" fill="#132525"/>
<path d="M4.5 9.50001C4.5 8.94772 4.94771 8.50001 5.5 8.50001H12.5C13.0523 8.50001 13.5 8.94772 13.5 9.50001V11.5C13.5 12.0523 13.0523 12.5 12.5 12.5H5.5C4.94771 12.5 4.5 12.0523 4.5 11.5V9.50001Z" fill="#132525"/>
</g>
</g>
</svg>
