<svg preserveAspectRatio="none" width="16" height="16" overflow="visible" style="display: block;" viewBox="0 0 14.8333 13.5" fill="none" xmlns="http://www.w3.org/2000/svg">
<g id="Group">
<path id="Vector" d="M13.2767 4.85134C13.8153 5.778 14.0833 6.24134 14.0833 6.75C14.0833 7.25867 13.8147 7.722 13.2767 8.64867L11.9947 10.8593C11.4593 11.782 11.1913 12.2433 10.7513 12.4967C10.3113 12.75 9.77667 12.75 8.708 12.75H6.12533C5.05667 12.75 4.522 12.75 4.082 12.4967C3.642 12.2433 3.374 11.782 2.83867 10.8593L1.55667 8.64867C1.01867 7.722 0.75 7.25867 0.75 6.75C0.75 6.24134 1.01867 5.778 1.55667 4.85134L2.83867 2.64067C3.374 1.718 3.642 1.25667 4.082 1.00334C4.522 0.750002 5.05667 0.750002 6.12533 0.750002H8.708C9.77667 0.750002 10.3113 0.750002 10.7513 1.00334C11.1913 1.25667 11.4593 1.718 11.9947 2.64067L13.2767 4.85134Z" stroke="#FFFFFF" stroke-width="1.5"/>
<path id="Vector_2" d="M5.41667 4.08333L9.41667 9.41667" stroke="#FFFFFF" stroke-width="1.5" stroke-linecap="round"/>
</g>
</svg>
