<svg preserveAspectRatio="none" width="35" height="35" viewBox="0 0 35 35" fill="none" xmlns="http://www.w3.org/2000/svg">
<g id="material-symbols:mail-outline">
<rect width="35" height="35" rx="17.5" fill="#FFFFFF" fill-opacity="0.05"/>
<path id="Vector" d="M12.3 23C11.9425 23 11.6366 22.8655 11.3822 22.5964C11.1278 22.3274 11.0004 22.0036 11 21.625V13.375C11 12.9969 11.1274 12.6733 11.3822 12.4042C11.637 12.1352 11.9429 12.0005 12.3 12H22.7C23.0575 12 23.3636 12.1347 23.6184 12.4042C23.8732 12.6737 24.0004 12.9973 24 13.375V21.625C24 22.0031 23.8728 22.3269 23.6184 22.5964C23.3641 22.8659 23.0579 23.0005 22.7 23H12.3ZM17.5 18.1875L12.3 14.75V21.625H22.7V14.75L17.5 18.1875ZM17.5 16.8125L22.7 13.375H12.3L17.5 16.8125ZM12.3 14.75V13.375V21.625V14.75Z" fill="#FFFFFF"/>
</g>
</svg>
