<svg preserveAspectRatio="none" width="39" height="39" viewBox="0 0 39 39" fill="none" xmlns="http://www.w3.org/2000/svg">
<g id="UserIMG">
<rect width="39" height="39" rx="10" fill="#6EDB1A"/>
<path id="Vector 22" d="M13.894 16.3271L11.5106 12.4562C11.3361 12.1727 11.0269 12 10.694 12C9.94846 12 9.488 12.8133 9.87157 13.4525L12.5068 17.8444C13.3247 19.2074 13.7568 20.7672 13.7568 22.3568V26.0709C13.7568 26.584 14.1727 27 14.6858 27C15.1989 27 15.6149 26.584 15.6149 26.0709V24.2315C15.6149 21.4219 16.4256 18.6721 17.9498 16.3119L18.1223 16.045C18.9686 14.7345 20.422 13.943 21.9819 13.943H23.4091C24.1124 13.943 24.6824 14.5131 24.6824 15.2163V26.0338C24.6824 26.5674 25.115 27 25.6486 27C26.1823 27 26.6149 26.5674 26.6149 26.0338V16.7203C26.6149 15.1864 27.8583 13.943 29.3921 13.943H30.0285C30.565 13.943 31 13.508 31 12.9715C31 12.435 30.565 12 30.0285 12H23.7556C20.4802 12 17.421 13.6353 15.6014 16.3588C15.1907 16.9735 14.2816 16.9566 13.894 16.3271Z" fill="#132525"/>
</g>
</svg>
