<svg preserveAspectRatio="none" width="100%" height="100%" overflow="visible" style="display: block;" viewBox="0 0 144 144" fill="none" xmlns="http://www.w3.org/2000/svg">
<g id="Frame 83156">
<rect id="Rectangle 1169" width="144" height="144" rx="20" fill="var(--fill-0, #6EDB1A)"/>
<g id="Rectangle 1163 (Stroke)">
<path d="M71.8469 48.2243C82.2381 47.4366 96.2755 60.9676 97.5724 71.91C100.255 94.5462 54.3977 104.425 47.1165 88.0958L46.9512 87.705C40.4154 71.2934 60.8003 49.7008 71.3509 48.2774L71.8469 48.2243ZM85.9204 58.2967C81.236 53.9122 75.9833 51.43 72.0835 51.7257C70.3517 51.8572 67.6687 52.9783 64.5241 55.2717C61.4653 57.5025 58.2946 60.6071 55.6145 64.1873C50.0882 71.5695 47.4152 79.8267 50.0097 86.3425C51.0676 88.9988 53.9246 91.1271 58.7151 92.1199C63.4121 93.0933 69.2809 92.7917 74.9913 91.2853C80.7099 89.7766 85.9547 87.1441 89.5365 83.7597C93.0702 80.4204 94.7818 76.5915 94.279 72.347C93.7709 68.0597 90.5801 62.6581 85.9204 58.2967Z" fill="var(--fill-0, white)"/>
<path d="M62.732 95.5052C62.732 95.5052 62.7322 95.503 61.0784 95.6485C59.5556 95.7824 59.4345 95.7917 59.4249 95.7918L59.4229 95.7859C59.4229 95.7859 59.4226 95.7773 59.4223 95.7726C59.4216 95.7632 59.4219 95.7514 59.421 95.7373C59.4191 95.7083 59.4169 95.6691 59.4145 95.6207C59.4097 95.5239 59.4027 95.3893 59.3999 95.2214C59.3944 94.8856 59.399 94.4132 59.4349 93.8438C59.5065 92.7108 59.7069 91.1571 60.2301 89.4977C61.2902 86.1359 63.7076 82.3008 68.942 80.7913C74.2228 79.2686 78.6989 81.5867 81.6947 84.0493C83.2046 85.2906 84.3974 86.6132 85.2115 87.6204C85.6199 88.1255 85.9374 88.5564 86.1555 88.866C86.2645 89.0208 86.349 89.1466 86.408 89.2355C86.4375 89.28 86.4613 89.3167 86.478 89.3425C86.486 89.3547 86.4922 89.3649 86.4972 89.3726C86.4996 89.3765 86.5043 89.3826 86.5043 89.3826L86.5059 89.386C86.5059 89.386 86.5083 89.389 85.1269 90.3619C83.7647 91.3212 83.7453 91.3357 83.7453 91.3357C83.7453 91.3357 83.7407 91.3287 83.7366 91.3223C83.7276 91.3085 83.7135 91.2847 83.6925 91.2531C83.6502 91.1894 83.5832 91.0918 83.4938 90.9648C83.3142 90.7099 83.0425 90.3402 82.6879 89.9015C81.9755 89.0203 80.9435 87.8785 79.6576 86.8214C77.0612 84.687 73.6623 83.0671 69.815 84.1765C65.9211 85.2994 64.1866 88.0465 63.3787 90.6087C62.9683 91.9105 62.806 93.1541 62.7476 94.0779C62.7186 94.5365 62.7159 94.9089 62.72 95.1593C62.7221 95.2844 62.7259 95.3796 62.7288 95.4384C62.7302 95.4674 62.7316 95.4881 62.7323 95.499L62.732 95.5052Z" fill="var(--fill-0, white)"/>
</g>
</g>
</svg>
