<svg preserveAspectRatio="none" width="100%" height="100%" overflow="visible" style="display: block;" viewBox="0 0 28 28" fill="none" xmlns="http://www.w3.org/2000/svg">
<g id="Ask Icon">
<path id="Vector" d="M4.66667 22.75V5.25C4.66667 4.47645 4.97396 3.73459 5.52094 3.18761C6.06792 2.64062 6.80978 2.33333 7.58333 2.33333H22.1667C22.4761 2.33333 22.7728 2.45625 22.9916 2.67504C23.2104 2.89383 23.3333 3.19058 23.3333 3.5V24.5C23.3333 24.8094 23.2104 25.1062 22.9916 25.325C22.7728 25.5438 22.4761 25.6667 22.1667 25.6667H7.58333C6.80978 25.6667 6.06792 25.3594 5.52094 24.8124C4.97396 24.2654 4.66667 23.5235 4.66667 22.75ZM4.66667 22.75C4.66667 21.9765 4.97396 21.2346 5.52094 20.6876C6.06792 20.1406 6.80978 19.8333 7.58333 19.8333H23.3333" stroke="currentColor" stroke-width="2" stroke-linecap="round" stroke-linejoin="round"/>
</g>
</svg>
