<svg preserveAspectRatio="none" width="100%" height="100%" overflow="visible" style="display: block;" viewBox="0 0 26 26" fill="none" xmlns="http://www.w3.org/2000/svg">
<g id="Home Icon">
<path id="Vector" d="M21.6667 2.16667C23.4921 2.16667 24.9167 3.77 24.9167 5.6875V20.3125C24.9167 22.23 23.4921 23.8333 21.6667 23.8333H4.33333C2.50792 23.8333 1.08333 22.23 1.08333 20.3125V5.6875C1.08333 3.77 2.50792 2.16667 4.33333 2.16667H21.6667ZM4.33333 4.33333C3.76567 4.33333 3.25 4.91292 3.25 5.6875V20.3125C3.25 21.0871 3.76567 21.6667 4.33333 21.6667H21.6667C22.2343 21.6667 22.75 21.0871 22.75 20.3125V5.6875C22.75 4.91292 22.2343 4.33333 21.6667 4.33333H4.33333ZM14.4896 16.0117L9.83125 12.285L7.26592 14.8492C7.0616 15.0466 6.78795 15.1558 6.5039 15.1533C6.21985 15.1508 5.94814 15.0369 5.74728 14.8361C5.54642 14.6352 5.43249 14.3635 5.43002 14.0794C5.42755 13.7954 5.53675 13.5217 5.73408 13.3174L8.98408 10.0674C9.17258 9.8788 9.42402 9.76634 9.69026 9.75154C9.95651 9.73675 10.2189 9.82068 10.4271 9.98725L15.0854 13.715L18.7341 10.0674C18.834 9.96395 18.9536 9.88142 19.0857 9.82464C19.2179 9.76786 19.3601 9.73798 19.5039 9.73673C19.6477 9.73548 19.7904 9.76289 19.9235 9.81736C20.0567 9.87183 20.1776 9.95227 20.2793 10.054C20.3811 10.1557 20.4615 10.2767 20.516 10.4098C20.5704 10.5429 20.5979 10.6856 20.5966 10.8294C20.5954 10.9733 20.5655 11.1154 20.5087 11.2476C20.4519 11.3798 20.3694 11.4993 20.2659 11.5992L15.9326 15.9326C15.7441 16.1212 15.4926 16.2337 15.2264 16.2485C14.9602 16.2632 14.6978 16.1793 14.4896 16.0128V16.0117Z" fill="currentColor"/>
</g>
</svg>
