<svg preserveAspectRatio="none" width="100%" height="100%" overflow="visible" style="display: block;" viewBox="0 0 28 28" fill="none" xmlns="http://www.w3.org/2000/svg">
<g id="Map Icon">
<path id="Vector" d="M10.5262 2.625L10.8517 1.813L10.5 1.68L10.1902 1.80686L9.653 2.625L10.528 2.62587L10.5262 2.625ZM16.989 5.20625L16.6644 6.01913L16.9881 5.20625H16.989ZM16.9767 24.9865L17.3005 24.1736L16.9767 24.9874V24.9865ZM10.5 2.625H11.375V2.31001L10.1902 1.80686L10.5 2.625ZM18.375 5.35325C18.375 5.12119 18.2828 4.89863 18.1187 4.73453C17.9546 4.57044 17.7321 4.47825 17.5 4.47825C17.2679 4.47825 17.0454 4.57044 16.8813 4.73453C16.7172 4.89863 16.625 5.12119 16.625 5.35325H18.375ZM16.625 25.1344C16.625 25.3664 16.7172 25.589 16.8813 25.7531C17.0454 25.9172 17.2679 26.0094 17.5 26.0094C17.7321 26.0094 17.9546 25.9172 18.1187 25.7531C18.2828 25.589 18.375 25.3664 18.375 25.1344H16.625ZM24.5 5.21237V21.2187H26.25V5.21237H24.5ZM9.65125 2.62413L9.625 22.4026L11.375 22.4052L11.4012 2.625L9.65125 2.62325V2.62413ZM22.6485 2.7755L18.6139 4.39337L19.2649 6.01737L23.2986 4.3995L22.6485 2.7755ZM23.9505 22.0316L18.599 24.1727L19.25 25.7976L24.6006 23.6565L23.9505 22.0316ZM17.3136 4.39425L10.8517 1.813L10.2025 3.43787L16.6644 6.01913L17.3136 4.39425ZM17.3014 24.1736L10.8237 21.5915L10.1762 23.2164L16.653 25.7994L17.3005 24.1736H17.3014ZM18.599 24.1736C18.1824 24.3399 17.7179 24.3399 17.3014 24.1736L16.653 25.7994C17.4869 26.1319 18.4166 26.1312 19.25 25.7976L18.599 24.1727V24.1736ZM24.5 21.2187C24.5 21.3935 24.4476 21.5642 24.3497 21.7089C24.2517 21.8537 24.1127 21.9657 23.9505 22.0307L24.6006 23.6556C25.0875 23.4607 25.5049 23.1244 25.7989 22.69C26.0929 22.2557 26.25 21.7432 26.25 21.2187H24.5ZM18.6139 4.3925C18.1965 4.55949 17.731 4.55949 17.3136 4.3925L16.6644 6.01825C17.4993 6.35167 18.4304 6.35104 19.2649 6.0165L18.6139 4.3925ZM26.25 5.21237C26.25 3.35387 24.3731 2.08425 22.6485 2.7755L23.2995 4.3995C23.4323 4.34627 23.5762 4.32642 23.7185 4.34171C23.8607 4.35699 23.9971 4.40694 24.1156 4.48717C24.2341 4.5674 24.3311 4.67547 24.3981 4.8019C24.4651 4.92834 24.5001 5.06928 24.5 5.21237H26.25ZM9.625 2.625V22.4044H11.375V2.625H9.625ZM10.1902 1.80686L4.02587 4.137L4.6445 5.77325L10.8097 3.44312L10.1902 1.80686ZM10.1911 21.5854L5.87038 23.2155L6.48812 24.8526L10.8089 23.2225L10.1911 21.5854ZM1.76313 7.40775L1.75263 21.5757L3.50262 21.5766L3.51312 7.4095L1.76313 7.40775ZM4.025 4.137C3.36047 4.38813 2.78808 4.83553 2.38391 5.41975C1.97974 6.00397 1.76291 6.69735 1.76225 7.40775L3.51225 7.4095C3.5124 7.05415 3.62073 6.70727 3.82283 6.41498C4.02493 6.1227 4.31122 5.89887 4.64362 5.77325L4.025 4.13788V4.137ZM5.8695 23.2155C5.60454 23.3155 5.31927 23.3496 5.03819 23.3151C4.75712 23.2805 4.48863 23.1783 4.25577 23.0171C4.02291 22.8559 3.83265 22.6406 3.70132 22.3897C3.56998 22.1388 3.5015 21.8598 3.50175 21.5766L1.75175 21.5757C1.75 24.0231 4.19738 25.7162 6.48725 24.8526L5.8695 23.2155ZM16.625 5.35237V25.1344H18.375V5.35237H16.625Z" fill="currentColor"/>
</g>
</svg>
